<svg xmlns="http://www.w3.org/2000/svg" viewBox="0 0 320 60" width="320" height="60">
  <circle cx="7"  cy="7"  r="5.5" fill="#64B5A0"/>
  <circle cx="21" cy="7"  r="5.5" fill="#64B5A0"/>
  <circle cx="35" cy="7"  r="5.5" fill="#1E3E50"/>
  <circle cx="49" cy="7"  r="5.5" fill="#64B5A0"/>
  <circle cx="7"  cy="21" r="5.5" fill="#1E3E50"/>
  <circle cx="21" cy="21" r="5.5" fill="#64B5A0"/>
  <circle cx="35" cy="21" r="5.5" fill="#C4693A"/>
  <circle cx="49" cy="21" r="5.5" fill="#64B5A0"/>
  <circle cx="7"  cy="35" r="5.5" fill="#64B5A0"/>
  <circle cx="21" cy="35" r="5.5" fill="#C4693A"/>
  <circle cx="35" cy="35" r="5.5" fill="#64B5A0"/>
  <circle cx="49" cy="35" r="5.5" fill="#1E3E50"/>
  <circle cx="7"  cy="49" r="5.5" fill="#1E3E50"/>
  <circle cx="21" cy="49" r="5.5" fill="#64B5A0"/>
  <circle cx="35" cy="49" r="5.5" fill="#64B5A0"/>
  <circle cx="49" cy="49" r="5.5" fill="#64B5A0"/>
  <text x="67" y="42" font-family="'Sora', 'Helvetica Neue', Arial, sans-serif" font-weight="300" font-size="38" letter-spacing="2" fill="#FFFFFF">estad</text>
  <text x="199" y="42" font-family="'Sora', 'Helvetica Neue', Arial, sans-serif" font-weight="300" font-size="38" letter-spacing="2" fill="#C4693A">i</text>
  <rect x="199" y="4" width="14" height="10" fill="#1E3E50"/>
  <path d="M206 2 C202.5 2 199.5 5 199.5 8.5 C199.5 12.5 206 18 206 18 C206 18 212.5 12.5 212.5 8.5 C212.5 5 209.5 2 206 2Z" fill="#C4693A"/>
  <circle cx="206" cy="8.5" r="2.8" fill="#1E3E50"/>
  <text x="213" y="42" font-family="'Sora', 'Helvetica Neue', Arial, sans-serif" font-weight="300" font-size="38" letter-spacing="2" fill="#FFFFFF">a</text>
</svg>
